<mxfile host="Electron" agent="Mozilla/5.0 (Windows NT 10.0; Win64; x64) AppleWebKit/537.36 (KHTML, like Gecko) draw.io/25.0.1 Chrome/128.0.6613.186 Electron/32.2.6 Safari/537.36" version="25.0.1">
  <diagram name="Page-1" id="IE2YHlmdql8CJOn4e2_S">
    <mxGraphModel dx="302" dy="703" grid="1" gridSize="10" guides="1" tooltips="1" connect="1" arrows="1" fold="1" page="1" pageScale="1" pageWidth="827" pageHeight="1169" math="0" shadow="0">
      <root>
        <mxCell id="0" />
        <mxCell id="1" parent="0" />
        <mxCell id="E9u9W1GBotNpLpHGZfWP-1" value="Animal" style="swimlane;fontStyle=1;align=center;verticalAlign=top;childLayout=stackLayout;horizontal=1;startSize=26;horizontalStack=0;resizeParent=1;resizeParentMax=0;resizeLast=0;collapsible=1;marginBottom=0;whiteSpace=wrap;html=1;" vertex="1" parent="1">
          <mxGeometry x="200" y="300" width="210" height="144" as="geometry" />
        </mxCell>
        <mxCell id="E9u9W1GBotNpLpHGZfWP-2" value="- régime : string&lt;div&gt;- habitat : Habitat&lt;/div&gt;&lt;div&gt;- tête : Tête&lt;/div&gt;&lt;div&gt;- corp : Corp&lt;/div&gt;&lt;div&gt;- membre : List[]&lt;/div&gt;" style="text;strokeColor=none;fillColor=none;align=left;verticalAlign=top;spacingLeft=4;spacingRight=4;overflow=hidden;rotatable=0;points=[[0,0.5],[1,0.5]];portConstraint=eastwest;whiteSpace=wrap;html=1;" vertex="1" parent="E9u9W1GBotNpLpHGZfWP-1">
          <mxGeometry y="26" width="210" height="84" as="geometry" />
        </mxCell>
        <mxCell id="E9u9W1GBotNpLpHGZfWP-3" value="" style="line;strokeWidth=1;fillColor=none;align=left;verticalAlign=middle;spacingTop=-1;spacingLeft=3;spacingRight=3;rotatable=0;labelPosition=right;points=[];portConstraint=eastwest;strokeColor=inherit;" vertex="1" parent="E9u9W1GBotNpLpHGZfWP-1">
          <mxGeometry y="110" width="210" height="8" as="geometry" />
        </mxCell>
        <mxCell id="E9u9W1GBotNpLpHGZfWP-4" value="+ ajouterMembre(menbre : Membres)" style="text;strokeColor=none;fillColor=none;align=left;verticalAlign=top;spacingLeft=4;spacingRight=4;overflow=hidden;rotatable=0;points=[[0,0.5],[1,0.5]];portConstraint=eastwest;whiteSpace=wrap;html=1;" vertex="1" parent="E9u9W1GBotNpLpHGZfWP-1">
          <mxGeometry y="118" width="210" height="26" as="geometry" />
        </mxCell>
        <mxCell id="E9u9W1GBotNpLpHGZfWP-5" value="Corp" style="swimlane;fontStyle=0;childLayout=stackLayout;horizontal=1;startSize=26;fillColor=none;horizontalStack=0;resizeParent=1;resizeParentMax=0;resizeLast=0;collapsible=1;marginBottom=0;whiteSpace=wrap;html=1;" vertex="1" parent="1">
          <mxGeometry x="80" y="60" width="140" height="76" as="geometry" />
        </mxCell>
        <mxCell id="E9u9W1GBotNpLpHGZfWP-6" value="&lt;div&gt;&lt;br&gt;&lt;/div&gt;&lt;div&gt;&lt;br&gt;&lt;/div&gt;&lt;div&gt;&lt;br&gt;&lt;/div&gt;" style="text;strokeColor=none;fillColor=none;align=left;verticalAlign=top;spacingLeft=4;spacingRight=4;overflow=hidden;rotatable=0;points=[[0,0.5],[1,0.5]];portConstraint=eastwest;whiteSpace=wrap;html=1;" vertex="1" parent="E9u9W1GBotNpLpHGZfWP-5">
          <mxGeometry y="26" width="140" height="24" as="geometry" />
        </mxCell>
        <mxCell id="E9u9W1GBotNpLpHGZfWP-8" value="&lt;div&gt;&lt;br&gt;&lt;/div&gt;&lt;div&gt;&lt;br&gt;&lt;/div&gt;&lt;div&gt;&lt;br&gt;&lt;/div&gt;" style="text;strokeColor=none;fillColor=none;align=left;verticalAlign=top;spacingLeft=4;spacingRight=4;overflow=hidden;rotatable=0;points=[[0,0.5],[1,0.5]];portConstraint=eastwest;whiteSpace=wrap;html=1;" vertex="1" parent="E9u9W1GBotNpLpHGZfWP-5">
          <mxGeometry y="50" width="140" height="26" as="geometry" />
        </mxCell>
        <mxCell id="E9u9W1GBotNpLpHGZfWP-10" value="Tête" style="swimlane;fontStyle=0;childLayout=stackLayout;horizontal=1;startSize=26;fillColor=none;horizontalStack=0;resizeParent=1;resizeParentMax=0;resizeLast=0;collapsible=1;marginBottom=0;whiteSpace=wrap;html=1;" vertex="1" parent="1">
          <mxGeometry x="230" y="60" width="140" height="76" as="geometry" />
        </mxCell>
        <mxCell id="E9u9W1GBotNpLpHGZfWP-11" value="&lt;div&gt;&lt;br&gt;&lt;/div&gt;&lt;div&gt;&lt;br&gt;&lt;/div&gt;&lt;div&gt;&lt;br&gt;&lt;/div&gt;" style="text;strokeColor=none;fillColor=none;align=left;verticalAlign=top;spacingLeft=4;spacingRight=4;overflow=hidden;rotatable=0;points=[[0,0.5],[1,0.5]];portConstraint=eastwest;whiteSpace=wrap;html=1;" vertex="1" parent="E9u9W1GBotNpLpHGZfWP-10">
          <mxGeometry y="26" width="140" height="24" as="geometry" />
        </mxCell>
        <mxCell id="E9u9W1GBotNpLpHGZfWP-12" value="&lt;div&gt;&lt;br&gt;&lt;/div&gt;&lt;div&gt;&lt;br&gt;&lt;/div&gt;&lt;div&gt;&lt;br&gt;&lt;/div&gt;" style="text;strokeColor=none;fillColor=none;align=left;verticalAlign=top;spacingLeft=4;spacingRight=4;overflow=hidden;rotatable=0;points=[[0,0.5],[1,0.5]];portConstraint=eastwest;whiteSpace=wrap;html=1;" vertex="1" parent="E9u9W1GBotNpLpHGZfWP-10">
          <mxGeometry y="50" width="140" height="26" as="geometry" />
        </mxCell>
        <mxCell id="E9u9W1GBotNpLpHGZfWP-14" value="" style="endArrow=diamondThin;endFill=1;endSize=24;html=1;rounded=0;entryX=0.5;entryY=0;entryDx=0;entryDy=0;" edge="1" parent="1" source="E9u9W1GBotNpLpHGZfWP-12" target="E9u9W1GBotNpLpHGZfWP-1">
          <mxGeometry width="160" relative="1" as="geometry">
            <mxPoint x="240" y="400" as="sourcePoint" />
            <mxPoint x="400" y="400" as="targetPoint" />
          </mxGeometry>
        </mxCell>
        <mxCell id="E9u9W1GBotNpLpHGZfWP-15" value="" style="endArrow=diamondThin;endFill=1;endSize=24;html=1;rounded=0;entryX=1;entryY=0;entryDx=0;entryDy=0;exitX=0.471;exitY=1.094;exitDx=0;exitDy=0;exitPerimeter=0;" edge="1" parent="1" source="E9u9W1GBotNpLpHGZfWP-19" target="E9u9W1GBotNpLpHGZfWP-1">
          <mxGeometry width="160" relative="1" as="geometry">
            <mxPoint x="483.06930693069296" y="136" as="sourcePoint" />
            <mxPoint x="400" y="400" as="targetPoint" />
            <Array as="points" />
          </mxGeometry>
        </mxCell>
        <mxCell id="E9u9W1GBotNpLpHGZfWP-16" value="" style="endArrow=diamondThin;endFill=1;endSize=24;html=1;rounded=0;entryX=0;entryY=0;entryDx=0;entryDy=0;" edge="1" parent="1" source="E9u9W1GBotNpLpHGZfWP-5" target="E9u9W1GBotNpLpHGZfWP-1">
          <mxGeometry width="160" relative="1" as="geometry">
            <mxPoint x="240" y="400" as="sourcePoint" />
            <mxPoint x="400" y="400" as="targetPoint" />
          </mxGeometry>
        </mxCell>
        <mxCell id="E9u9W1GBotNpLpHGZfWP-18" value="Membres" style="swimlane;fontStyle=0;childLayout=stackLayout;horizontal=1;startSize=26;fillColor=none;horizontalStack=0;resizeParent=1;resizeParentMax=0;resizeLast=0;collapsible=1;marginBottom=0;whiteSpace=wrap;html=1;" vertex="1" parent="1">
          <mxGeometry x="380" y="60" width="140" height="76" as="geometry" />
        </mxCell>
        <mxCell id="E9u9W1GBotNpLpHGZfWP-20" value="&lt;div&gt;&lt;br&gt;&lt;/div&gt;&lt;div&gt;&lt;br&gt;&lt;/div&gt;&lt;div&gt;&lt;br&gt;&lt;/div&gt;" style="text;strokeColor=none;fillColor=none;align=left;verticalAlign=top;spacingLeft=4;spacingRight=4;overflow=hidden;rotatable=0;points=[[0,0.5],[1,0.5]];portConstraint=eastwest;whiteSpace=wrap;html=1;" vertex="1" parent="E9u9W1GBotNpLpHGZfWP-18">
          <mxGeometry y="26" width="140" height="26" as="geometry" />
        </mxCell>
        <mxCell id="E9u9W1GBotNpLpHGZfWP-19" value="&lt;div&gt;&lt;br&gt;&lt;/div&gt;&lt;div&gt;&lt;br&gt;&lt;/div&gt;&lt;div&gt;&lt;br&gt;&lt;/div&gt;" style="text;strokeColor=none;fillColor=none;align=left;verticalAlign=top;spacingLeft=4;spacingRight=4;overflow=hidden;rotatable=0;points=[[0,0.5],[1,0.5]];portConstraint=eastwest;whiteSpace=wrap;html=1;" vertex="1" parent="E9u9W1GBotNpLpHGZfWP-18">
          <mxGeometry y="52" width="140" height="24" as="geometry" />
        </mxCell>
        <mxCell id="E9u9W1GBotNpLpHGZfWP-21" value="Habitat" style="swimlane;fontStyle=0;childLayout=stackLayout;horizontal=1;startSize=26;fillColor=none;horizontalStack=0;resizeParent=1;resizeParentMax=0;resizeLast=0;collapsible=1;marginBottom=0;whiteSpace=wrap;html=1;" vertex="1" parent="1">
          <mxGeometry x="60" y="580" width="140" height="76" as="geometry" />
        </mxCell>
        <mxCell id="E9u9W1GBotNpLpHGZfWP-22" value="&lt;div&gt;&lt;br&gt;&lt;/div&gt;&lt;div&gt;&lt;br&gt;&lt;/div&gt;&lt;div&gt;&lt;br&gt;&lt;/div&gt;" style="text;strokeColor=none;fillColor=none;align=left;verticalAlign=top;spacingLeft=4;spacingRight=4;overflow=hidden;rotatable=0;points=[[0,0.5],[1,0.5]];portConstraint=eastwest;whiteSpace=wrap;html=1;" vertex="1" parent="E9u9W1GBotNpLpHGZfWP-21">
          <mxGeometry y="26" width="140" height="24" as="geometry" />
        </mxCell>
        <mxCell id="E9u9W1GBotNpLpHGZfWP-23" value="&lt;div&gt;&lt;br&gt;&lt;/div&gt;&lt;div&gt;&lt;br&gt;&lt;/div&gt;&lt;div&gt;&lt;br&gt;&lt;/div&gt;" style="text;strokeColor=none;fillColor=none;align=left;verticalAlign=top;spacingLeft=4;spacingRight=4;overflow=hidden;rotatable=0;points=[[0,0.5],[1,0.5]];portConstraint=eastwest;whiteSpace=wrap;html=1;" vertex="1" parent="E9u9W1GBotNpLpHGZfWP-21">
          <mxGeometry y="50" width="140" height="26" as="geometry" />
        </mxCell>
        <mxCell id="E9u9W1GBotNpLpHGZfWP-24" value="Lapin" style="swimlane;fontStyle=0;childLayout=stackLayout;horizontal=1;startSize=26;fillColor=none;horizontalStack=0;resizeParent=1;resizeParentMax=0;resizeLast=0;collapsible=1;marginBottom=0;whiteSpace=wrap;html=1;" vertex="1" parent="1">
          <mxGeometry x="210" y="580" width="140" height="76" as="geometry" />
        </mxCell>
        <mxCell id="E9u9W1GBotNpLpHGZfWP-25" value="&lt;div&gt;&lt;br&gt;&lt;/div&gt;&lt;div&gt;&lt;br&gt;&lt;/div&gt;&lt;div&gt;&lt;br&gt;&lt;/div&gt;" style="text;strokeColor=none;fillColor=none;align=left;verticalAlign=top;spacingLeft=4;spacingRight=4;overflow=hidden;rotatable=0;points=[[0,0.5],[1,0.5]];portConstraint=eastwest;whiteSpace=wrap;html=1;" vertex="1" parent="E9u9W1GBotNpLpHGZfWP-24">
          <mxGeometry y="26" width="140" height="24" as="geometry" />
        </mxCell>
        <mxCell id="E9u9W1GBotNpLpHGZfWP-26" value="&lt;div&gt;&lt;br&gt;&lt;/div&gt;&lt;div&gt;&lt;br&gt;&lt;/div&gt;&lt;div&gt;&lt;br&gt;&lt;/div&gt;" style="text;strokeColor=none;fillColor=none;align=left;verticalAlign=top;spacingLeft=4;spacingRight=4;overflow=hidden;rotatable=0;points=[[0,0.5],[1,0.5]];portConstraint=eastwest;whiteSpace=wrap;html=1;" vertex="1" parent="E9u9W1GBotNpLpHGZfWP-24">
          <mxGeometry y="50" width="140" height="26" as="geometry" />
        </mxCell>
        <mxCell id="E9u9W1GBotNpLpHGZfWP-27" value="Tigre" style="swimlane;fontStyle=0;childLayout=stackLayout;horizontal=1;startSize=26;fillColor=none;horizontalStack=0;resizeParent=1;resizeParentMax=0;resizeLast=0;collapsible=1;marginBottom=0;whiteSpace=wrap;html=1;" vertex="1" parent="1">
          <mxGeometry x="360" y="580" width="140" height="76" as="geometry" />
        </mxCell>
        <mxCell id="E9u9W1GBotNpLpHGZfWP-28" value="&lt;div&gt;&lt;br&gt;&lt;/div&gt;&lt;div&gt;&lt;br&gt;&lt;/div&gt;&lt;div&gt;&lt;br&gt;&lt;/div&gt;" style="text;strokeColor=none;fillColor=none;align=left;verticalAlign=top;spacingLeft=4;spacingRight=4;overflow=hidden;rotatable=0;points=[[0,0.5],[1,0.5]];portConstraint=eastwest;whiteSpace=wrap;html=1;" vertex="1" parent="E9u9W1GBotNpLpHGZfWP-27">
          <mxGeometry y="26" width="140" height="24" as="geometry" />
        </mxCell>
        <mxCell id="E9u9W1GBotNpLpHGZfWP-29" value="&lt;div&gt;&lt;br&gt;&lt;/div&gt;&lt;div&gt;&lt;br&gt;&lt;/div&gt;&lt;div&gt;&lt;br&gt;&lt;/div&gt;" style="text;strokeColor=none;fillColor=none;align=left;verticalAlign=top;spacingLeft=4;spacingRight=4;overflow=hidden;rotatable=0;points=[[0,0.5],[1,0.5]];portConstraint=eastwest;whiteSpace=wrap;html=1;" vertex="1" parent="E9u9W1GBotNpLpHGZfWP-27">
          <mxGeometry y="50" width="140" height="26" as="geometry" />
        </mxCell>
        <mxCell id="E9u9W1GBotNpLpHGZfWP-30" value="" style="endArrow=diamondThin;endFill=0;endSize=24;html=1;rounded=0;entryX=0.5;entryY=0;entryDx=0;entryDy=0;exitX=0;exitY=0.5;exitDx=0;exitDy=0;" edge="1" parent="1" source="E9u9W1GBotNpLpHGZfWP-2" target="E9u9W1GBotNpLpHGZfWP-21">
          <mxGeometry width="160" relative="1" as="geometry">
            <mxPoint x="90" y="490" as="sourcePoint" />
            <mxPoint x="250" y="490" as="targetPoint" />
            <Array as="points">
              <mxPoint x="130" y="370" />
            </Array>
          </mxGeometry>
        </mxCell>
        <mxCell id="E9u9W1GBotNpLpHGZfWP-32" value="" style="endArrow=classic;html=1;rounded=0;exitX=0.5;exitY=0;exitDx=0;exitDy=0;entryX=1;entryY=0.932;entryDx=0;entryDy=0;entryPerimeter=0;" edge="1" parent="1" source="E9u9W1GBotNpLpHGZfWP-24" target="E9u9W1GBotNpLpHGZfWP-2">
          <mxGeometry relative="1" as="geometry">
            <mxPoint x="230" y="490" as="sourcePoint" />
            <mxPoint x="330" y="490" as="targetPoint" />
            <Array as="points">
              <mxPoint x="280" y="530" />
              <mxPoint x="430" y="530" />
              <mxPoint x="430" y="404" />
            </Array>
          </mxGeometry>
        </mxCell>
        <mxCell id="E9u9W1GBotNpLpHGZfWP-33" value="Héritage" style="edgeLabel;resizable=0;;align=center;verticalAlign=middle;html=1;" connectable="0" vertex="1" parent="E9u9W1GBotNpLpHGZfWP-32">
          <mxGeometry relative="1" as="geometry">
            <mxPoint x="-43" as="offset" />
          </mxGeometry>
        </mxCell>
        <mxCell id="E9u9W1GBotNpLpHGZfWP-34" value="" style="endArrow=classic;html=1;rounded=0;exitX=0.569;exitY=0.02;exitDx=0;exitDy=0;entryX=1.002;entryY=0.764;entryDx=0;entryDy=0;entryPerimeter=0;exitPerimeter=0;" edge="1" parent="1" source="E9u9W1GBotNpLpHGZfWP-27" target="E9u9W1GBotNpLpHGZfWP-2">
          <mxGeometry relative="1" as="geometry">
            <mxPoint x="290" y="590" as="sourcePoint" />
            <mxPoint x="420" y="414" as="targetPoint" />
            <Array as="points">
              <mxPoint x="440" y="560" />
              <mxPoint x="440" y="540" />
              <mxPoint x="440" y="390" />
            </Array>
          </mxGeometry>
        </mxCell>
        <mxCell id="E9u9W1GBotNpLpHGZfWP-35" value="Héritage" style="edgeLabel;resizable=0;;align=center;verticalAlign=middle;html=1;" connectable="0" vertex="1" parent="E9u9W1GBotNpLpHGZfWP-34">
          <mxGeometry relative="1" as="geometry">
            <mxPoint y="79" as="offset" />
          </mxGeometry>
        </mxCell>
        <mxCell id="E9u9W1GBotNpLpHGZfWP-36" value="0..n" style="text;html=1;align=center;verticalAlign=middle;resizable=0;points=[];autosize=1;strokeColor=none;fillColor=none;" vertex="1" parent="1">
          <mxGeometry x="130" y="348" width="40" height="30" as="geometry" />
        </mxCell>
        <mxCell id="E9u9W1GBotNpLpHGZfWP-37" value="1" style="text;html=1;align=center;verticalAlign=middle;resizable=0;points=[];autosize=1;strokeColor=none;fillColor=none;" vertex="1" parent="1">
          <mxGeometry x="130" y="498" width="30" height="30" as="geometry" />
        </mxCell>
        <mxCell id="E9u9W1GBotNpLpHGZfWP-38" value="habite dans" style="text;html=1;align=center;verticalAlign=middle;resizable=0;points=[];autosize=1;strokeColor=none;fillColor=none;" vertex="1" parent="1">
          <mxGeometry x="50" y="408" width="90" height="30" as="geometry" />
        </mxCell>
        <mxCell id="E9u9W1GBotNpLpHGZfWP-39" value="Possède" style="text;html=1;align=center;verticalAlign=middle;resizable=0;points=[];autosize=1;strokeColor=none;fillColor=none;" vertex="1" parent="1">
          <mxGeometry x="175" y="198" width="70" height="30" as="geometry" />
        </mxCell>
        <mxCell id="E9u9W1GBotNpLpHGZfWP-41" value="Possède" style="text;html=1;align=center;verticalAlign=middle;resizable=0;points=[];autosize=1;strokeColor=none;fillColor=none;" vertex="1" parent="1">
          <mxGeometry x="300" y="198" width="70" height="30" as="geometry" />
        </mxCell>
        <mxCell id="E9u9W1GBotNpLpHGZfWP-42" value="Possède" style="text;html=1;align=center;verticalAlign=middle;resizable=0;points=[];autosize=1;strokeColor=none;fillColor=none;" vertex="1" parent="1">
          <mxGeometry x="430" y="198" width="70" height="30" as="geometry" />
        </mxCell>
      </root>
    </mxGraphModel>
  </diagram>
</mxfile>
